<svg width="32" height="32" viewBox="0 0 32 32" fill="none" xmlns="http://www.w3.org/2000/svg">
<rect width="32" height="32" rx="2" fill="white"/>
<path d="M21.5196 19.4967C21.6659 19.3556 21.8429 19.2847 22.0505 19.2847H24.3004V18.5811H22.0505C21.6345 18.5811 21.2806 18.7199 20.9888 18.9974C20.6971 19.275 20.5508 19.6078 20.5508 19.9974V22.133C20.5508 22.5278 20.6971 22.8636 20.9888 23.1404C21.2806 23.4173 21.6345 23.5561 22.0505 23.5561H24.3004V22.8442H22.0505C21.8429 22.8442 21.6659 22.7748 21.5196 22.636C21.3734 22.4972 21.3002 22.3293 21.3002 22.1323V21.4204H23.5502V20.7085H21.3002V19.9966C21.3002 19.8048 21.3734 19.6377 21.5196 19.4967Z" fill="#454545"/>
<path d="M27.5549 21.1244C27.26 20.8476 26.9077 20.708 26.4972 20.708H25.7477C25.5401 20.708 25.3632 20.6394 25.2169 20.5013C25.0706 20.3633 24.9975 20.1961 24.9975 20.0006C24.9975 19.8051 25.0706 19.6439 25.2169 19.5036C25.3632 19.3633 25.5401 19.2925 25.7477 19.2925H27.8034V18.5806H25.7477C25.3317 18.5806 24.9778 18.7194 24.6861 18.9962C24.3943 19.2731 24.248 19.6066 24.248 19.9961C24.248 20.3857 24.3943 20.7267 24.6861 21.0035C24.9778 21.2811 25.3317 21.4199 25.7477 21.4199H26.4972C26.7048 21.4199 26.8817 21.4893 27.028 21.6281C27.1743 21.7669 27.2474 21.9348 27.2474 22.1318C27.2474 22.3288 27.1743 22.4974 27.028 22.6355C26.8817 22.7743 26.7048 22.8437 26.4972 22.8437H24.2732V23.5556H26.4972C26.9069 23.5556 27.26 23.4168 27.5549 23.1392C27.8498 22.8623 27.9977 22.5258 27.9977 22.1318C27.9977 21.7378 27.8506 21.4013 27.5549 21.1244Z" fill="#454545"/>
<path fill-rule="evenodd" clip-rule="evenodd" d="M19.3685 18.997C19.0767 18.7194 18.7228 18.5806 18.3068 18.5806H17.9364C17.4866 18.5806 17.113 18.7403 16.8158 19.0604C16.5122 18.7403 16.1363 18.5806 15.6873 18.5806H15.3169C14.9017 18.5806 14.547 18.7194 14.2552 18.997C13.9635 19.2738 13.8172 19.6074 13.8172 19.9961V23.5556H14.5674V20.0028C14.5674 19.8111 14.6406 19.6454 14.7868 19.5036C14.9331 19.3626 15.1101 19.2917 15.3177 19.2917H15.6881C15.8957 19.2917 16.0726 19.3619 16.2189 19.5036C16.3652 19.6447 16.4383 19.8111 16.4383 20.0028V23.5556H17.1878V20.0028C17.1878 19.8111 17.2609 19.6454 17.4072 19.5036C17.5534 19.3626 17.7304 19.2917 17.938 19.2917H18.3084C18.516 19.2917 18.6929 19.3619 18.8392 19.5036C18.9855 19.6447 19.0578 19.8111 19.0578 20.0028V23.5556H19.8073V19.9961C19.8081 19.6074 19.6618 19.2738 19.37 18.997M12.176 21.4199H9.92603V19.9961C9.92603 19.8044 9.99917 19.638 10.1454 19.4962C10.2917 19.3551 10.4687 19.2842 10.6763 19.2842H11.4257C11.6333 19.2842 11.8103 19.3551 11.9565 19.4962C12.1028 19.6372 12.176 19.8044 12.176 19.9961V21.4199ZM11.4257 18.5806H10.6763C10.261 18.5806 9.90637 18.7194 9.61462 18.997C9.32286 19.2738 9.17659 19.6074 9.17659 19.9961V23.5556H9.92603V22.1318H12.176V23.5556H12.9254V19.9961C12.9254 19.6074 12.7776 19.2738 12.4827 18.997C12.1885 18.7194 11.8354 18.5806 11.4257 18.5806ZM4.90873 18.997C4.61698 19.2738 4.4707 19.6074 4.4707 19.9961V22.1318C4.4707 22.5265 4.61698 22.8623 4.90873 23.1392C5.20049 23.4168 5.55438 23.5548 5.97039 23.5548H6.88105C7.29077 23.5548 7.64387 23.416 7.93877 23.1392C8.23368 22.8623 8.38152 22.5258 8.38152 22.1318V20.708H6.12924V21.4199H7.62893V22.1318C7.62893 22.3288 7.55579 22.4974 7.40952 22.6355C7.26325 22.7743 7.08631 22.8437 6.87869 22.8437H5.96882C5.7612 22.8437 5.58426 22.7743 5.43799 22.6362C5.29172 22.4982 5.21858 22.3303 5.21858 22.1333V20.0028C5.21858 19.8111 5.29172 19.6454 5.43799 19.5044C5.58426 19.3633 5.7612 19.2932 5.96882 19.2932H8.37916V18.5813H5.9696C5.5528 18.5813 5.19971 18.7201 4.90716 18.9977" fill="#454545"/>
<path d="M11.551 8.00732V11.904C11.551 13.3823 10.8778 14.7113 9.80513 15.6291C8.86773 16.4321 7.62677 16.9201 6.26471 16.9201H4.5V8.00732H6.26392V15.2657C8.21972 15.2657 9.80591 13.7614 9.80591 11.9048V8.00732H11.5517H11.551Z" fill="#ED5A26"/>
<path d="M19.7748 10.5095V16.9225H18.0101V10.508C18.0101 10.0461 17.6153 9.67226 17.1293 9.67226H14.4854V16.9225H12.7246V8H17.1309C17.4391 8 17.7356 8.05 18.0117 8.14253C18.7635 8.394 19.3588 8.95888 19.6246 9.67226C19.7229 9.93418 19.7756 10.2163 19.7756 10.5103" fill="#ED5A26"/>
<path d="M23.8837 13.2994H26.2335C26.2335 13.2994 26.2359 14.3784 26.2359 14.415C26.2359 14.8769 25.8387 15.25 25.352 15.25H23.5935C23.1138 15.25 22.7238 14.8866 22.712 14.4344C22.712 14.4284 22.712 14.4225 22.712 14.4165V10.5183C22.712 10.0564 23.1067 9.68252 23.5928 9.68252H26.8233V8.01025H23.592C23.2837 8.01025 22.9872 8.06025 22.712 8.15278C21.9602 8.40425 21.3641 8.96914 21.0983 9.68252C21.0007 9.94444 20.9473 10.2258 20.9473 10.5198V14.4157C20.9473 14.7083 21 14.9896 21.0975 15.2508C21.3633 15.9649 21.9594 16.5313 22.712 16.7827C22.9872 16.8745 23.2829 16.9253 23.592 16.9253H25.3551C25.6634 16.9253 25.9591 16.8753 26.2335 16.7827C26.9869 16.5313 27.583 15.9649 27.848 15.2508C27.9447 14.9903 27.9974 14.7098 27.9974 14.4172V11.6309H23.8837V13.3002V13.2994Z" fill="#ED5A26"/>
</svg>
